<?xml version="1.0" standalone="no"?><!DOCTYPE svg PUBLIC "-//W3C//DTD SVG 1.1//EN"
        "http://www.w3.org/Graphics/SVG/1.1/DTD/svg11.dtd">
<svg class="icon" width="200px" height="168.28px" viewBox="0 0 1217 1024" version="1.1"
     xmlns="http://www.w3.org/2000/svg">
    <path d="M1176.72159 613.147613c-109.293924 88.014948-267.639658 224.03805-408.35921 243.635582-90.508125-4.348565-176.841628-47.312383-268.799275-39.948814-161.418719-1.33356-285.207859 207.281581-448.77187 133.87781 161.998528-265.958213 542.874809-62.909235 728.529528-382.673688 22.090708-44.123436-22.090708-44.123436-29.396297-44.123436 100.422853-34.034766 435.262329-279.003907 294.368836-331.128702 0 0 191.336844-125.1227 88.304852-176.609705-88.304852-51.487005-331.128702 36.817847-331.128702 36.817848-28.990431-125.238661-394.153898 104.249589-390.037257 117.75913 0 0 0-44.123436-29.454278-29.454278-419.549516 264.856577-257.66695 559.167431-257.666949 559.167431S543.744522 178.001246 904.327501 111.787102C530.640847 259.986184 13.393579 942.942755 13.393579 942.942755s-9.624823 12.871751-11.828096 16.292622-1.391541 11.42223-1.39154 11.42223 4.05866 15.422909 12.002038 21.047053c161.244777 104.713436 304.167601-75.317139 452.540626-115.03403 241.316347-19.53955 289.034596 120.774135 537.192685-64.242795 80.651379-50.733254 155.330729-110.801427 209.078987-190.351169 19.945416-29.512259-7.885397-32.469283-34.266689-8.987033z" fill="#c9a96e"/>
</svg>
